<?xml version="1.0" encoding="utf-8"?>
<!-- Generator: Adobe Illustrator 22.1.0, SVG Export Plug-In . SVG Version: 6.00 Build 0)  -->
<svg version="1.2" baseProfile="tiny" id="Layer_1" xmlns="http://www.w3.org/2000/svg" xmlns:xlink="http://www.w3.org/1999/xlink"
	 x="0px" y="0px" viewBox="0 0 5000 5000" xml:space="preserve">
<rect fill="transparent" width="5000" height="5000"/>
<path fill="#FFFFFF" d="M3956.4,1092.8h-129.8V928.5H2653.1V1073h-149.1v952.3h-144.5v149.1h-216v136.9h-220.6v155.2h-152.1v143
	h-290.6v-141.5h-146v-146h-146v-296.7h-144.5v873.2h140v149.1h152.1v147.6h144.5v146h146v141.5h144.5v588.7h296.7v-150.6h-147.6
	v-144.5h146v-146h146v-144.5h147.6v144.5H2500v441.2h293.1v-149.1h-141.5v-582.7h141.5v-147.6h150.6v-219.1h143V2462h149.1v141.5
	h141.5v-286h-289v-293.6h581.1v-146h-433.6l-1.5-160.2h722.1V1092.8z M2941.9,1295.3h-146v-146h146V1295.3z"/>
</svg>
