<?xml version="1.0" standalone="no"?>
<!DOCTYPE svg PUBLIC "-//W3C//DTD SVG 20010904//EN"
 "http://www.w3.org/TR/2001/REC-SVG-20010904/DTD/svg10.dtd">
<svg version="1.0" xmlns="http://www.w3.org/2000/svg"
 width="48.000000pt" height="55.000000pt" viewBox="0 0 48.000000 55.000000"
 preserveAspectRatio="xMidYMid meet">

<g transform="translate(0.000000,55.000000) scale(0.100000,-0.100000)"
fill="gray" stroke="none">
<path d="M10 345 l0 -195 28 -5 c15 -3 55 -19 90 -35 l62 -30 0 30 0 30 64 0
c76 0 89 11 84 71 -4 58 -26 63 -30 7 l-3 -43 -55 0 -55 0 -3 135 -3 136 -62
31 -62 32 123 0 122 1 0 -46 c0 -32 4 -44 13 -41 7 2 12 23 12 58 l0 54 -162
3 -163 2 0 -195z"/>
<path d="M390 402 c0 -20 -5 -22 -65 -22 l-65 0 0 -35 0 -35 65 0 c63 0 65 -1
65 -26 0 -30 9 -26 49 25 l30 38 -39 38 c-36 35 -40 37 -40 17z"/>
</g>
</svg>
