<?xml version="1.0" encoding="utf-8"?>
<!-- Generator: Adobe Illustrator 16.0.2, SVG Export Plug-In . SVG Version: 6.00 Build 0)  -->
<!DOCTYPE svg PUBLIC "-//W3C//DTD SVG 1.1//EN" "http://www.w3.org/Graphics/SVG/1.1/DTD/svg11.dtd">
<svg version="1.1" id="Layer_1" xmlns="http://www.w3.org/2000/svg" xmlns:xlink="http://www.w3.org/1999/xlink" x="0px" y="0px"
	 width="427.579px" height="276.284px" viewBox="0 0 427.579 276.284" enable-background="new 0 0 427.579 276.284"
	 xml:space="preserve">
<g>
	<g>
		<path d="M415.824,110.708c-9.629-12.544-25.539-19.174-46.016-19.174c-22.074,0-42.564,7.871-57.758,21.902
			c0.494-3.897-0.514-6.969-3.1-10.336c-2.684-3.499-7.023-4.815-13.264-4.815H278.38c-9.42,0-17.52,5.279-19.689,13.373
			l-5.52,13.392l-5.619-13.881c-2.689-7.756-10.902-12.884-19.975-12.884h-23c-5.446,0-10.21,1.568-13.745,4.473
			c-2.89-2.933-7.055-4.473-12.161-4.473h-18.139c-9.421,0-17.521,5.281-19.688,13.373l-2.229,7.893
			c-0.95-1.703-2.074-3.108-3.409-4.847c-8.628-11.242-23.948-16.419-46.837-16.419H45.663c-9.423,0-17.523,5.283-19.692,13.391
			L3.073,196.329c-1.386,5.176-0.314,11.611,2.662,15.493c3.42,4.453,8.36,7.462,13.22,7.462h42.708
			c22.549,0,41.609-7.208,55.797-20.118c-0.503,4.514,0.651,9.085,3.147,12.335c2.145,2.795,4.891,4.772,7.841,5.939
			c-5.472,5.063-9.069,10.936-10.946,17.948c-2.628,9.799-1.203,18.748,4.238,25.576c4.539,5.697,10.862,9.319,18.811,10.319
			h157.215l14.965-56.081c7.805,3.48,17.205,4.907,28.594,4.907c38.703,0,71.313-24.794,81.146-61.494
			C427.552,139.653,425.253,122.998,415.824,110.708z"/>
		<g>
			<g>
				<path fill="#FFFFFF" d="M129.835,155.483c-7.662,28.594-27.591,49.832-68.171,49.832H18.957c-4.05,0-6.507-3.201-5.458-7.113
					l22.894-85.442c1.049-3.912,5.221-7.113,9.271-7.113h42.708C128.951,105.647,137.53,126.767,129.835,155.483z M96.85,155.483
					c4.291-16.02-3.041-22.309-15.855-22.309h-9.722c-4.05,0-8.222,3.201-9.271,7.115l-8.142,30.385
					c-1.048,3.914,1.408,7.115,5.458,7.115h9.722C81.855,177.79,92.589,171.382,96.85,155.483z"/>
			</g>
			<g>
				<path fill="#FFFFFF" d="M151.263,112.76c1.049-3.912,5.22-7.113,9.27-7.113h18.139c4.05,0,6.506,3.201,5.458,7.113
					l-22.895,85.442c-1.048,3.912-5.219,7.113-9.269,7.113h-18.138c-4.051,0-6.508-3.201-5.459-7.113L151.263,112.76z"/>
			</g>
			<g>
				<path fill="#FFFFFF" d="M195.306,112.76c1.049-3.912,5.222-7.113,9.271-7.113h23c4.051,0,8.451,3.131,9.779,6.958l13.846,39.952
					c1.328,3.828,3.078,6.959,3.896,6.959c0.814,0,2.34-3.201,3.389-7.113l10.621-39.643c1.049-3.912,5.223-7.113,9.271-7.113
					h17.307c4.051,0,6.506,3.201,5.459,7.113l-22.895,85.442c-1.049,3.912-5.219,7.113-9.271,7.113h-22.172
					c-4.051,0-8.49-3.113-9.871-6.924l-14.488-40.02c-1.379-3.808-3.172-6.924-3.99-6.924c-0.814,0-2.338,3.201-3.386,7.113
					l-10.624,39.641c-1.048,3.912-5.219,7.113-9.269,7.113h-17.31c-4.051,0-6.507-3.201-5.458-7.113L195.306,112.76z"/>
			</g>
			<g>
				<path fill="#FFFFFF" d="M299.087,155.483c8.553-31.92,36.43-53.158,70.721-53.158s50.791,21.238,42.238,53.158
					c-8.553,31.916-36.432,53.157-70.723,53.157S290.537,187.399,299.087,155.483z M379.414,155.483
					c4.23-15.782-4.15-24.799-17.203-24.799s-26.266,9.017-30.496,24.799c-4.227,15.777,4.154,24.797,17.207,24.797
					C361.972,180.28,375.187,171.261,379.414,155.483z"/>
			</g>
		</g>
		<g>
			<path fill="#69DE17" d="M172.027,222.477l-9.435,8.255c-2.094-2.752-4.96-4.127-8.603-4.127c-3.035,0-5.795,1.012-8.277,3.033
				c-2.484,2.023-4.165,4.674-5.043,7.951s-0.617,5.927,0.782,7.951c1.4,2.023,3.617,3.033,6.653,3.033
				c3.639,0,7.245-1.375,10.814-4.127l5.011,8.254c-6.272,4.531-12.687,6.796-19.239,6.796c-6.433,0-11.27-2.032-14.509-6.099
				c-3.239-4.065-3.992-9.336-2.257-15.809c1.734-6.473,5.311-11.742,10.729-15.809c5.419-4.067,11.345-6.1,17.778-6.1
				C162.986,215.681,168.185,217.946,172.027,222.477z"/>
			<path fill="#69DE17" d="M208.088,258.83h-13.535l-0.944-8.255h-11.711l-5.247,8.255h-13.17l27.829-42.483h11.289L208.088,258.83z
				 M186.566,240.624h7.588l-1.009-9.832L186.566,240.624z"/>
			<path fill="#69DE17" d="M254.214,219.565l-6.639,8.92c-1.248-0.93-2.859-1.678-4.828-2.246c-1.975-0.566-3.852-0.848-5.631-0.848
				c-2.992,0-4.719,0.848-5.174,2.549c-0.379,1.415,0.475,2.526,2.566,3.336l4.295,1.639c3.855,1.457,6.615,3.207,8.271,5.25
				c1.658,2.043,2.031,4.764,1.121,8.162c-1.105,4.128-3.551,7.354-7.328,9.682c-3.779,2.324-8.439,3.487-13.984,3.487
				c-3.438,0-6.602-0.455-9.494-1.364c-2.891-0.91-5.15-2.174-6.781-3.793l7.346-9.527c3.643,3.316,7.508,4.975,11.594,4.975
				c1.537,0,2.824-0.273,3.861-0.818c1.035-0.547,1.668-1.244,1.895-2.094c0.414-1.537-0.467-2.712-2.637-3.521l-4.355-1.639
				c-4.207-1.658-7-3.498-8.381-5.521c-1.379-2.024-1.68-4.491-0.898-7.404c1.084-4.046,3.416-7.243,6.998-9.589
				c3.582-2.348,7.965-3.52,13.141-3.52C245.242,215.681,250.255,216.976,254.214,219.565z"/>
			<path fill="#69DE17" d="M289.128,258.83h-12.744l4.064-15.173h-12.439l-4.066,15.173h-12.744l11.385-42.483h12.742l-4.537,16.934
				h12.443l4.535-16.934h12.746L289.128,258.83z"/>
		</g>
	</g>
	<g>
		<path fill-rule="evenodd" clip-rule="evenodd" d="M273.417,30.701c-9.758-2.712-19.549-5.317-29.311-7.979
			c-20.316-5.536-40.619-11.123-60.953-16.604c-7.248-1.955-13.471-0.169-18.35,5.728c-2.2,2.653-3.016,5.889-3.819,9.112
			c-0.292,1.167-0.675,1.521-1.939,1.34c-3.184-0.457-5.41,0.915-6.109,3.524c-0.72,2.65,0.5,5.071,3.435,6.212
			c1.38,0.535,1.38,1.107,0.997,2.319c-0.714,2.241-1.281,4.535-1.787,6.833c-0.374,1.667-0.835,2.561-2.938,2.06
			c-2.293-0.545-4.547,1.076-5.348,3.297c-0.857,2.365-0.341,4.937,1.815,5.678c3.797,1.306,2.513,3.463,1.799,5.791
			c-0.413,1.34-0.849,2.682-1.097,4.053c-0.326,1.814-0.747,2.831-3.111,2.377c-2.601-0.5-4.71,1.316-5.235,3.706
			c-0.545,2.458,0.506,5.076,2.887,5.804c2.088,0.639,1.926,1.625,1.406,3.185c-1.425,4.254-1.809,8.541-0.176,12.843
			c1.591,4.204,4.865,6.885,8.282,9.566c11.307,8.855,22.563,17.779,33.824,26.693l4.665-16.13l30.855,8.237
			c0.314-0.019,0.701,0.034,1.191,0.176c7.25,2.095,14.551,3.992,21.832,5.97l0.486,0.13c2.43,0.658,4.857,1.221,6.908,1.001
			c7.674-0.641,13.443-5.499,15.449-12.829c5.539-20.311,11.039-40.629,16.5-60.963C288.171,42.167,283.107,33.399,273.417,30.701z"
			/>
		<path fill-rule="evenodd" clip-rule="evenodd" fill="#69DE17" d="M261.503,101.552c-0.896,3.228-1.627,6.473-2.709,9.597
			c-1.25,3.609-4.381,4.937-8.6,3.802c-10.904-2.929-21.789-5.925-32.686-8.885c-18.664-5.078-37.307-10.228-55.999-15.178
			c-8.074-2.14-7.36-7.016-5.536-12.473c0.401-1.214,1.144-0.744,1.877-0.66c3.185,0.362,5.272-0.923,6.023-3.708
			c0.696-2.586-0.444-4.928-3.27-6.042c-1.314-0.517-1.551-1.106-1.177-2.313c0.514-1.672,1.042-3.349,1.386-5.059
			c0.508-2.541,0.868-4.706,4.561-4.088c2.252,0.377,3.803-1.573,4.32-3.83c0.542-2.343-0.568-4.764-2.893-5.564
			c-1.995-0.694-2.015-1.669-1.47-3.323c0.733-2.243,1.335-4.535,1.903-6.829c0.289-1.172,0.567-1.716,2.079-1.482
			c3.137,0.476,5.287-0.927,5.989-3.425c0.765-2.726-0.464-4.999-3.553-6.433c-0.567-0.262-1.096-0.309-1.127-1.156
			c-0.225-6.089,4.517-9.93,10.362-8.341c29.39,7.985,58.78,15.97,88.169,23.964c6.432,1.75,7.879,4.414,6.125,10.807
			c-3.455,12.575-6.906,25.149-10.193,37.764c-0.596,2.274-1.791,3.457-3.848,4.094c-0.25,0.078-0.504,0.145-0.756,0.223
			c-6.313,1.97-6.547,1.886-9.898-3.715c-0.404-0.674-0.734-1.398-1.178-2.047c-1.426-2.119-3.404-2.63-5.697-1.51
			c-0.781,0.384-1.537,0.849-2.338,1.188c-6.9,2.92-7.855,2.612-11.621-3.672c-2.578-4.296-3.508-4.566-7.965-2.407
			c-0.785,0.382-1.617,0.671-2.445,0.945c-6.107,2.034-6.72,1.945-9.738-3.528c-1.515-2.75-3.414-4.319-6.506-4.911
			c-3.261-0.623-6.411-1.769-9.632-2.588c-1.754-0.445-2.892-1.308-3.566-3.08c-0.891-2.34-2.971-3.273-5.033-2.596
			c-2.128,0.697-3.182,2.851-2.435,5.356c1.195,4.001,3.913,6.582,7.881,7.76c3.179,0.95,6.399,1.793,9.632,2.577
			c1.554,0.376,2.664,1.117,3.392,2.577c0.661,1.324,1.734,2.475,2.252,3.843c1.295,3.437,3.951,4.01,7.133,3.859
			c3.166-0.147,6.283-0.559,9.264-1.669c1.307-0.49,2.158-0.271,2.719,1.038c0.246,0.555,0.734,1.017,0.926,1.583
			c1.494,4.32,4.836,4.931,8.799,4.599c2.816-0.235,5.559-0.738,8.209-1.664c1.234-0.429,2.016-0.183,2.566,0.966
			c0.109,0.233,0.268,0.449,0.408,0.673c3.674,5.881,5.451,6.641,12.383,5.29C259.083,101.664,260.146,101.165,261.503,101.552z
			 M189.239,37.853c-0.096,0.467-0.152,0.804-0.233,1.133c-1.687,6.911,1.787,13.126,8.369,14.953
			c6.824,1.895,13.1-1.563,15.042-8.51c0.638-2.262,1.467-0.905,2.324-0.452c2.296,1.226,4.544,0.792,5.729-1.131
			c1.209-1.966,0.684-4.235-1.475-5.676c-1.67-1.111-3.406-2.149-5.199-3.04c-8.308-4.133-17.073-6.058-26.362-5.346
			c-2.395,0.186-3.715,1.616-3.782,3.905c-0.068,2.229,1.313,3.513,3.484,3.903C187.802,37.711,188.486,37.763,189.239,37.853z
			 M265.404,57.226c-0.25-5.147-4.33-10.33-9.15-11.619c-2.385-0.64-4.414,0.229-5.23,2.231c-0.828,2.059-0.053,4.271,2.221,5.186
			c3.283,1.322,4.516,3.433,3.881,6.952c-0.396,2.156,0.832,3.696,2.977,4.292c2.031,0.563,3.994-0.568,4.777-2.649
			C265.41,60.197,265.318,58.7,265.404,57.226z"/>
		<path fill-rule="evenodd" clip-rule="evenodd" fill="#030403" d="M189.239,37.853c-0.753-0.09-1.437-0.142-2.103-0.261
			c-2.172-0.391-3.553-1.674-3.484-3.903c0.067-2.289,1.388-3.72,3.782-3.905c9.289-0.712,18.055,1.213,26.362,5.346
			c1.793,0.891,3.529,1.929,5.199,3.04c2.158,1.44,2.684,3.709,1.475,5.676c-1.186,1.923-3.434,2.357-5.729,1.131
			c-0.857-0.454-1.687-1.811-2.324,0.452c-1.942,6.948-8.218,10.405-15.042,8.51c-6.582-1.826-10.056-8.042-8.369-14.953
			C189.086,38.657,189.143,38.32,189.239,37.853z M201.939,44.589c1.892-0.181,3.17-1.084,3.165-3.096
			c-0.003-2.04-2.561-3.783-5.003-3.546c-2.08,0.198-3.39,1.611-3.14,3.379C197.237,43.289,199.576,44.822,201.939,44.589z"/>
		<path fill-rule="evenodd" clip-rule="evenodd" fill="#030403" d="M265.404,57.226c-0.086,1.475,0.006,2.971-0.525,4.393
			c-0.783,2.081-2.746,3.212-4.777,2.649c-2.145-0.596-3.373-2.136-2.977-4.292c0.635-3.52-0.598-5.63-3.881-6.952
			c-2.273-0.916-3.049-3.127-2.221-5.186c0.816-2.002,2.846-2.871,5.23-2.231C261.074,46.896,265.154,52.078,265.404,57.226z"/>
		<path fill-rule="evenodd" clip-rule="evenodd" fill="#FDFDFD" d="M201.939,44.589c-2.363,0.233-4.702-1.3-4.978-3.264
			c-0.25-1.768,1.06-3.181,3.14-3.379c2.442-0.236,5,1.507,5.003,3.546C205.109,43.505,203.831,44.408,201.939,44.589z"/>
	</g>
</g>
</svg>
